<?xml version="1.0" encoding="iso-8859-1"?>
<!-- Generator: Adobe Illustrator 16.0.0, SVG Export Plug-In . SVG Version: 6.00 Build 0)  -->
<!DOCTYPE svg PUBLIC "-//W3C//DTD SVG 1.1//EN" "http://www.w3.org/Graphics/SVG/1.1/DTD/svg11.dtd">
<svg version="1.1" id="Capa_1" xmlns="http://www.w3.org/2000/svg" xmlns:xlink="http://www.w3.org/1999/xlink" x="0px" y="0px"
	 width="612px" height="612px" viewBox="0 0 612 612" style="enable-background:new 0 0 612 612;" xml:space="preserve">
<g>
	<g>
		<path d="M466.366,253.1l-12.358-9.561c-11.808,0.254-23.869,1.526-36.037,3.922l48.396,37.437V253.1z"/>
		<polygon points="105.992,147.107 105.992,83.512 42.397,83.512 42.397,197.072 63.595,178.905 63.595,104.71 84.794,104.71 
			84.794,165.592 		"/>
		<path d="M0,284.897L233.183,104.52l119.75,92.637c4.896-2.713,9.878-5.299,14.966-7.78c3.328-1.611,6.678-3.18,10.027-4.685
			L233.183,72.722L0,253.1V284.897z"/>
		<path d="M612,213.776l-94.63-88.228l-6.826,48.587c-38.518,2.247-189.98,19.375-250.523,150.594
			c95.139-119.814,215.122-103.915,243.146-98.191l-6.466,45.958L612,213.776z"/>
		<polygon points="42.397,282.968 42.397,539.278 147.965,539.278 147.965,518.081 63.595,518.081 63.595,265.797 		"/>
		<path d="M225.806,348.302l9.772-21.197h-65.991v211.984h127.191V327.104h-11.172c-3.031,3.496-6.042,7.1-8.988,10.811
			l-8.247,10.387h7.208V517.89h-84.794V348.302H225.806z"/>
		<polygon points="402.919,518.081 318.592,518.081 318.592,539.278 424.118,539.278 424.118,282.163 402.919,265.225 		"/>
	</g>
</g>
<g>
</g>
<g>
</g>
<g>
</g>
<g>
</g>
<g>
</g>
<g>
</g>
<g>
</g>
<g>
</g>
<g>
</g>
<g>
</g>
<g>
</g>
<g>
</g>
<g>
</g>
<g>
</g>
<g>
</g>
</svg>
